<svg width="126" height="10" viewBox="0 0 126 10" fill="none" xmlns="http://www.w3.org/2000/svg">
<path d="M2.11758 4.98789C2.75065 4.96497 3.20325 4.89909 3.47539 4.79023C3.94232 4.59831 4.17578 4.23737 4.17578 3.70742C4.17578 3.19753 3.96666 2.84948 3.54844 2.66328C3.325 2.56302 3.02851 2.51289 2.65898 2.51289C2.40976 2.51289 2.25651 2.53151 2.19922 2.56875C2.14479 2.60312 2.11758 2.6862 2.11758 2.81797V4.98789ZM0.467576 7.84102C0.805597 7.80951 1.01614 7.74362 1.09922 7.64336C1.18229 7.5431 1.22383 7.30964 1.22383 6.94297V3.13164C1.22383 2.82227 1.17656 2.62031 1.08203 2.52578C0.990362 2.42839 0.785545 2.3668 0.467576 2.34102V2.17773H2.9039C3.41094 2.17773 3.83346 2.24219 4.17148 2.37109C4.81315 2.61458 5.13398 3.06289 5.13398 3.71602C5.13398 4.1543 4.99075 4.49089 4.70429 4.72578C4.4207 4.96068 4.03398 5.11536 3.54414 5.18984L5.35742 7.41992C5.46914 7.55742 5.58086 7.65768 5.69258 7.7207C5.80429 7.78372 5.94752 7.82383 6.12226 7.84102V8H4.70429L2.60742 5.29297L2.11758 5.31445V7.04609C2.11758 7.37266 2.16627 7.58034 2.26367 7.66914C2.36393 7.75508 2.58021 7.81237 2.9125 7.84102V8H0.467576V7.84102ZM7.49726 5.09102C7.49726 6.01628 7.67916 6.70091 8.04297 7.14492C8.40677 7.58607 8.85364 7.80664 9.38359 7.80664C9.90208 7.80664 10.3447 7.5918 10.7113 7.16211C11.0809 6.72956 11.2656 6.03919 11.2656 5.09102C11.2656 4.13138 11.0794 3.43815 10.707 3.01133C10.3346 2.58451 9.89349 2.37109 9.38359 2.37109C8.85651 2.37109 8.40963 2.5931 8.04297 3.03711C7.67916 3.47826 7.49726 4.16289 7.49726 5.09102ZM6.50039 5.09102C6.50039 4.15143 6.79544 3.39805 7.38554 2.83086C7.92695 2.31237 8.59297 2.05312 9.38359 2.05312C10.1771 2.05312 10.8445 2.3138 11.3859 2.83516C11.9732 3.39948 12.2668 4.15143 12.2668 5.09102C12.2668 6.04492 11.9631 6.80404 11.3559 7.36836C10.8116 7.87253 10.1542 8.12461 9.38359 8.12461C8.55859 8.12461 7.87396 7.84531 7.32969 7.28672C6.77682 6.71667 6.50039 5.98477 6.50039 5.09102ZM15.2531 2.17773V2.34102C15.0469 2.33529 14.8922 2.35104 14.7891 2.38828C14.6859 2.42552 14.6344 2.50573 14.6344 2.62891C14.6344 2.66615 14.643 2.71341 14.6602 2.7707C14.6773 2.82513 14.716 2.89818 14.7762 2.98984L16.0781 4.94492L17.3414 2.95977C17.393 2.87669 17.4259 2.80794 17.4402 2.75352C17.4574 2.69909 17.466 2.65898 17.466 2.6332C17.466 2.50716 17.3987 2.42409 17.2641 2.38398C17.1839 2.3582 17.0464 2.34388 16.8516 2.34102V2.17773H18.7766V2.34102C18.599 2.34961 18.44 2.4026 18.2996 2.5C18.0819 2.65182 17.837 2.93398 17.5648 3.34648L16.2629 5.33164V7.04609C16.2629 7.38698 16.3173 7.60039 16.4262 7.68633C16.5379 7.7694 16.7857 7.82096 17.1695 7.84102V8H14.4797V7.84102C14.8779 7.8181 15.1242 7.75937 15.2187 7.66484C15.3161 7.56745 15.3648 7.32682 15.3648 6.94297V5.41328L14.2133 3.72461C13.8151 3.1431 13.5358 2.7707 13.3754 2.60742C13.215 2.44128 13.0202 2.35247 12.791 2.34102V2.17773H15.2531ZM21.9047 5.73984L20.8863 3.31641L19.8809 5.73984H21.9047ZM18.1062 8V7.84102C18.3325 7.81523 18.5016 7.7293 18.6133 7.5832C18.7279 7.43711 18.9227 7.04036 19.1977 6.39297L21.0324 2.07461H21.2043L23.3957 7.06328C23.5418 7.39557 23.6578 7.60182 23.7437 7.68203C23.8325 7.75937 23.9801 7.81237 24.1863 7.84102V8H21.9477V7.84102C22.2055 7.8181 22.3716 7.79089 22.4461 7.75937C22.5206 7.725 22.5578 7.64336 22.5578 7.51445C22.5578 7.47148 22.5435 7.39557 22.5148 7.28672C22.4862 7.17786 22.4461 7.06328 22.3945 6.94297L22.0293 6.09648H19.7262C19.497 6.67227 19.3595 7.02461 19.3137 7.15352C19.2707 7.27956 19.2492 7.37982 19.2492 7.4543C19.2492 7.60326 19.3094 7.70638 19.4297 7.76367C19.5042 7.79805 19.6445 7.82383 19.8508 7.84102V8H18.1062ZM24.4355 7.84102C24.7592 7.80664 24.9684 7.74935 25.0629 7.66914C25.1603 7.58607 25.209 7.37839 25.209 7.04609V3.13164C25.209 2.8194 25.1617 2.61602 25.0672 2.52148C24.9727 2.42409 24.7621 2.36393 24.4355 2.34102V2.17773H26.9234V2.34102C26.5997 2.3582 26.382 2.4112 26.2703 2.5C26.1615 2.5888 26.107 2.7793 26.107 3.07148V7.29961C26.107 7.39701 26.1228 7.47435 26.1543 7.53164C26.1887 7.58607 26.2617 7.62044 26.3734 7.63477C26.4393 7.64336 26.5081 7.64909 26.5797 7.65195C26.6542 7.65482 26.7917 7.65625 26.9922 7.65625C27.7742 7.65625 28.3027 7.5918 28.5777 7.46289C28.8527 7.33398 29.1191 7.00456 29.377 6.47461H29.6004L29.1707 8H24.4355V7.84102ZM31.7316 7.84102C32.0754 7.80378 32.2902 7.74076 32.3762 7.65195C32.4621 7.56029 32.5051 7.32396 32.5051 6.94297V3.13164C32.5051 2.81654 32.4564 2.61172 32.359 2.51719C32.2645 2.42266 32.0553 2.36393 31.7316 2.34102V2.17773H34.1766V2.34102C33.8529 2.36393 33.6423 2.42266 33.5449 2.51719C33.4475 2.61172 33.3988 2.81654 33.3988 3.13164V4.84609H36.0672V3.13164C36.0672 2.81654 36.0199 2.61172 35.9254 2.51719C35.8309 2.42266 35.6203 2.36393 35.2937 2.34102V2.17773H37.7387V2.34102C37.415 2.36393 37.2044 2.42266 37.107 2.51719C37.0125 2.61172 36.9652 2.81654 36.9652 3.13164V7.04609C36.9652 7.36693 37.0125 7.57318 37.107 7.66484C37.2044 7.75365 37.415 7.81237 37.7387 7.84102V8H35.2937V7.84102C35.6404 7.80664 35.8552 7.74362 35.9383 7.65195C36.0242 7.56029 36.0672 7.32396 36.0672 6.94297V5.23281H33.3988V7.04609C33.3988 7.36693 33.4475 7.57318 33.5449 7.66484C33.6423 7.75651 33.8529 7.81523 34.1766 7.84102V8H31.7316V7.84102ZM41.8766 5.73984L40.8582 3.31641L39.8527 5.73984H41.8766ZM38.0781 8V7.84102C38.3044 7.81523 38.4734 7.7293 38.5852 7.5832C38.6997 7.43711 38.8945 7.04036 39.1695 6.39297L41.0043 2.07461H41.1762L43.3676 7.06328C43.5137 7.39557 43.6297 7.60182 43.7156 7.68203C43.8044 7.75937 43.9519 7.81237 44.1582 7.84102V8H41.9195V7.84102C42.1773 7.8181 42.3435 7.79089 42.418 7.75937C42.4924 7.725 42.5297 7.64336 42.5297 7.51445C42.5297 7.47148 42.5154 7.39557 42.4867 7.28672C42.4581 7.17786 42.418 7.06328 42.3664 6.94297L42.0012 6.09648H39.698C39.4689 6.67227 39.3314 7.02461 39.2855 7.15352C39.2426 7.27956 39.2211 7.37982 39.2211 7.4543C39.2211 7.60326 39.2812 7.70638 39.4016 7.76367C39.476 7.79805 39.6164 7.82383 39.8227 7.84102V8H38.0781ZM46.0574 4.98789C46.6905 4.96497 47.1431 4.89909 47.4152 4.79023C47.8822 4.59831 48.1156 4.23737 48.1156 3.70742C48.1156 3.19753 47.9065 2.84948 47.4883 2.66328C47.2648 2.56302 46.9684 2.51289 46.5988 2.51289C46.3496 2.51289 46.1964 2.53151 46.1391 2.56875C46.0846 2.60312 46.0574 2.6862 46.0574 2.81797V4.98789ZM44.4074 7.84102C44.7454 7.80951 44.956 7.74362 45.0391 7.64336C45.1221 7.5431 45.1637 7.30964 45.1637 6.94297V3.13164C45.1637 2.82227 45.1164 2.62031 45.0219 2.52578C44.9302 2.42839 44.7254 2.3668 44.4074 2.34102V2.17773H46.8437C47.3508 2.17773 47.7733 2.24219 48.1113 2.37109C48.753 2.61458 49.0738 3.06289 49.0738 3.71602C49.0738 4.1543 48.9306 4.49089 48.6441 4.72578C48.3605 4.96068 47.9738 5.11536 47.484 5.18984L49.2973 7.41992C49.409 7.55742 49.5207 7.65768 49.6324 7.7207C49.7441 7.78372 49.8874 7.82383 50.0621 7.84102V8H48.6441L46.5473 5.29297L46.0574 5.31445V7.04609C46.0574 7.37266 46.1061 7.58034 46.2035 7.66914C46.3038 7.75508 46.52 7.81237 46.8523 7.84102V8H44.4074V7.84102ZM51.957 2.17773V2.34102C51.7365 2.34388 51.5861 2.3582 51.5059 2.38398C51.3655 2.42982 51.2953 2.52292 51.2953 2.66328C51.2953 2.7349 51.3197 2.83516 51.3684 2.96406C51.4199 3.09297 51.5145 3.30924 51.652 3.61289L53.027 6.67656L54.2773 3.35937C54.3318 3.21328 54.3733 3.0901 54.402 2.98984C54.4306 2.88958 54.4449 2.80794 54.4449 2.74492C54.4449 2.57591 54.3719 2.46133 54.2258 2.40117C54.1398 2.3668 53.998 2.34674 53.8004 2.34102V2.17773H55.6008V2.32812C55.4146 2.35391 55.2771 2.40404 55.1883 2.47852C55.0536 2.59023 54.9204 2.8151 54.7887 3.15312L52.8422 8.10313H52.709L50.5391 3.26484C50.3557 2.85521 50.2082 2.60026 50.0965 2.5C49.9876 2.39974 49.8272 2.34245 49.6152 2.32812V2.17773H51.957ZM55.9316 7.84102C56.2553 7.80664 56.4645 7.74935 56.559 7.66914C56.6564 7.58607 56.7051 7.37839 56.7051 7.04609V3.13164C56.7051 2.8194 56.6578 2.61602 56.5633 2.52148C56.4687 2.42409 56.2582 2.36393 55.9316 2.34102V2.17773H60.6066L60.6367 3.44102H60.4133C60.3388 3.05143 60.2271 2.79935 60.0781 2.68477C59.9292 2.57018 59.5969 2.51289 59.0812 2.51289H57.8867C57.7578 2.51289 57.6776 2.53437 57.6461 2.57734C57.6174 2.61745 57.6031 2.69479 57.6031 2.80937V4.77305H58.9566C59.3319 4.77305 59.5711 4.71719 59.6742 4.60547C59.7773 4.49375 59.8604 4.26745 59.9234 3.92656H60.1297V5.96328H59.9234C59.8575 5.6224 59.773 5.39753 59.6699 5.28867C59.5668 5.17695 59.329 5.12109 58.9566 5.12109H57.6031V7.29961C57.6031 7.47435 57.6575 7.57747 57.7664 7.60898C57.8781 7.64049 58.209 7.65625 58.759 7.65625C59.3548 7.65625 59.7945 7.5918 60.0781 7.46289C60.3617 7.33112 60.6167 7.01458 60.843 6.51328H61.0879L60.6883 8H55.9316V7.84102ZM61.7797 6.22969C61.9286 6.625 62.1034 6.9401 62.3039 7.175C62.6534 7.58464 63.0874 7.78945 63.6059 7.78945C63.8866 7.78945 64.1286 7.70065 64.332 7.52305C64.5383 7.34544 64.6414 7.09766 64.6414 6.77969C64.6414 6.49323 64.5383 6.24401 64.332 6.03203C64.1974 5.8974 63.9138 5.69544 63.4812 5.42617L62.7293 4.95781C62.503 4.81458 62.3225 4.66992 62.1879 4.52383C61.9387 4.24596 61.8141 3.93945 61.8141 3.6043C61.8141 3.16029 61.9616 2.79076 62.2566 2.4957C62.5517 2.20065 62.9427 2.05312 63.4297 2.05312C63.6302 2.05312 63.8708 2.10326 64.1516 2.20352C64.4352 2.30091 64.597 2.34961 64.6371 2.34961C64.746 2.34961 64.8204 2.32383 64.8605 2.27227C64.9035 2.2207 64.9365 2.14766 64.9594 2.05312H65.1398L65.3332 3.92656H65.1227C64.9794 3.36224 64.7488 2.96836 64.4309 2.74492C64.1158 2.52148 63.8035 2.40977 63.4941 2.40977C63.2535 2.40977 63.043 2.48138 62.8625 2.62461C62.6849 2.76497 62.5961 2.9612 62.5961 3.21328C62.5961 3.43958 62.6648 3.63294 62.8023 3.79336C62.9398 3.95664 63.1533 4.12708 63.4426 4.30469L64.216 4.78164C64.7001 5.07956 65.041 5.35312 65.2387 5.60234C65.4335 5.85443 65.5309 6.15234 65.5309 6.49609C65.5309 6.95729 65.3561 7.34258 65.0066 7.65195C64.66 7.96133 64.216 8.11602 63.6746 8.11602C63.4025 8.11602 63.1174 8.06445 62.8195 7.96133C62.5245 7.8582 62.3555 7.80664 62.3125 7.80664C62.2094 7.80664 62.1392 7.83815 62.102 7.90117C62.0676 7.96419 62.0447 8.03151 62.0332 8.10313H61.8398L61.5777 6.22969H61.7797ZM66.2828 2.17773H71.2543L71.3016 3.67305H71.091C70.9879 3.20326 70.8561 2.89818 70.6957 2.75781C70.5381 2.61458 70.2044 2.54297 69.6945 2.54297H69.2047V7.04609C69.2047 7.38698 69.2577 7.59896 69.3637 7.68203C69.4697 7.76224 69.7017 7.81523 70.0598 7.84102V8H67.4945V7.84102C67.8669 7.81237 68.099 7.75078 68.1906 7.65625C68.2823 7.56172 68.3281 7.32396 68.3281 6.94297V2.54297H67.8383C67.3513 2.54297 67.019 2.61315 66.8414 2.75352C66.6667 2.89388 66.5349 3.20039 66.4461 3.67305H66.2312L66.2828 2.17773ZM76.3547 4.34766C76.6383 4.1901 76.8517 4.04258 76.9949 3.90508C77.2527 3.65872 77.3816 3.38659 77.3816 3.08867C77.3816 2.86523 77.3158 2.68477 77.184 2.54727C77.0551 2.40977 76.8904 2.34102 76.6898 2.34102C76.4721 2.34102 76.3031 2.4112 76.1828 2.55156C76.0654 2.69193 76.0066 2.87812 76.0066 3.11016C76.0066 3.29062 76.0381 3.48685 76.1012 3.69883C76.1671 3.90794 76.2516 4.12422 76.3547 4.34766ZM75.8477 7.65625C76.0081 7.65625 76.2029 7.61042 76.432 7.51875C76.6612 7.42708 76.8803 7.28242 77.0895 7.08477C76.8202 6.74102 76.6096 6.45169 76.4578 6.2168C76.3089 5.9819 76.074 5.57227 75.7531 4.98789C75.4581 5.16263 75.2318 5.33737 75.0742 5.51211C74.8336 5.78138 74.7133 6.09362 74.7133 6.44883C74.7133 6.77539 74.8193 7.05898 75.0312 7.29961C75.2432 7.53737 75.5154 7.65625 75.8477 7.65625ZM75.6199 4.68281C75.5827 4.60547 75.5397 4.49948 75.491 4.36484C75.4423 4.23021 75.4079 4.12135 75.3879 4.03828C75.365 3.94661 75.3464 3.85495 75.332 3.76328C75.3177 3.66875 75.3105 3.57708 75.3105 3.48828C75.3105 3.07578 75.4366 2.73346 75.6887 2.46133C75.9408 2.18919 76.2602 2.05312 76.6469 2.05312C76.9992 2.05312 77.2885 2.14909 77.5148 2.34102C77.7411 2.53294 77.8543 2.79076 77.8543 3.11445C77.8543 3.49258 77.7096 3.80195 77.4203 4.04258C77.131 4.2832 76.8202 4.47656 76.4879 4.62266C76.74 5.08099 76.9247 5.40469 77.0422 5.59375C77.1625 5.78281 77.3645 6.06211 77.648 6.43164C77.9517 6.05924 78.1622 5.74128 78.2797 5.47773C78.3971 5.21419 78.4559 5.00365 78.4559 4.84609C78.4559 4.68568 78.3971 4.57539 78.2797 4.51523C78.2052 4.47799 78.0763 4.45221 77.893 4.43789V4.25312H79.7879V4.43789C79.596 4.46081 79.4527 4.49518 79.3582 4.54102C79.2035 4.61836 79.0717 4.75729 78.9629 4.95781L78.7395 5.36602C78.579 5.6582 78.4444 5.88164 78.3355 6.03633C78.2296 6.19102 78.0691 6.40443 77.8543 6.67656C77.9689 6.8112 78.0992 6.94727 78.2453 7.08477C78.5633 7.3569 78.8812 7.49297 79.1992 7.49297C79.3883 7.49297 79.5487 7.44714 79.6805 7.35547C79.7607 7.29818 79.8681 7.18789 80.0027 7.02461L80.1316 7.12773C80.1145 7.19648 80.0543 7.30534 79.9512 7.4543C79.848 7.60039 79.7492 7.71497 79.6547 7.79805C79.5057 7.92982 79.3324 8.02292 79.1348 8.07734C79.0173 8.11172 78.9027 8.12891 78.791 8.12891C78.5131 8.12891 78.2381 8.04154 77.966 7.8668C77.8027 7.76367 77.585 7.58177 77.3129 7.32109C77.0551 7.55885 76.7944 7.74076 76.5309 7.8668C76.1871 8.03867 75.809 8.12461 75.3965 8.12461C74.9381 8.12461 74.5715 8.00286 74.2965 7.75937C74.0243 7.51302 73.8883 7.17786 73.8883 6.75391C73.8883 6.35573 74.01 6.00625 74.2535 5.70547C74.4999 5.40182 74.8436 5.12539 75.2848 4.87617L75.6199 4.68281ZM82.727 7.84102C83.0707 7.80378 83.2855 7.74076 83.3715 7.65195C83.4574 7.56029 83.5004 7.32396 83.5004 6.94297V3.13164C83.5004 2.81654 83.4517 2.61172 83.3543 2.51719C83.2598 2.42266 83.0507 2.36393 82.727 2.34102V2.17773H85.1719V2.34102C84.8482 2.36393 84.6376 2.42266 84.5402 2.51719C84.4428 2.61172 84.3941 2.81654 84.3941 3.13164V4.84609H87.0625V3.13164C87.0625 2.81654 87.0152 2.61172 86.9207 2.51719C86.8262 2.42266 86.6156 2.36393 86.2891 2.34102V2.17773H88.734V2.34102C88.4103 2.36393 88.1997 2.42266 88.1023 2.51719C88.0078 2.61172 87.9606 2.81654 87.9606 3.13164V7.04609C87.9606 7.36693 88.0078 7.57318 88.1023 7.66484C88.1997 7.75365 88.4103 7.81237 88.734 7.84102V8H86.2891V7.84102C86.6357 7.80664 86.8505 7.74362 86.9336 7.65195C87.0195 7.56029 87.0625 7.32396 87.0625 6.94297V5.23281H84.3941V7.04609C84.3941 7.36693 84.4428 7.57318 84.5402 7.66484C84.6376 7.75651 84.8482 7.81523 85.1719 7.84102V8H82.727V7.84102ZM89.0434 7.84102C89.3671 7.80664 89.5762 7.74935 89.6707 7.66914C89.7681 7.58607 89.8168 7.37839 89.8168 7.04609V3.13164C89.8168 2.8194 89.7695 2.61602 89.675 2.52148C89.5805 2.42409 89.3699 2.36393 89.0434 2.34102V2.17773H93.7184L93.7484 3.44102H93.525C93.4505 3.05143 93.3388 2.79935 93.1898 2.68477C93.0409 2.57018 92.7086 2.51289 92.193 2.51289H90.9984C90.8695 2.51289 90.7893 2.53437 90.7578 2.57734C90.7292 2.61745 90.7148 2.69479 90.7148 2.80937V4.77305H92.0684C92.4436 4.77305 92.6828 4.71719 92.7859 4.60547C92.8891 4.49375 92.9721 4.26745 93.0352 3.92656H93.2414V5.96328H93.0352C92.9693 5.6224 92.8848 5.39753 92.7816 5.28867C92.6785 5.17695 92.4408 5.12109 92.0684 5.12109H90.7148V7.29961C90.7148 7.47435 90.7693 7.57747 90.8781 7.60898C90.9898 7.64049 91.3207 7.65625 91.8707 7.65625C92.4665 7.65625 92.9063 7.5918 93.1898 7.46289C93.4734 7.33112 93.7284 7.01458 93.9547 6.51328H94.1996L93.8 8H89.0434V7.84102ZM96.073 4.98789C96.7061 4.96497 97.1587 4.89909 97.4309 4.79023C97.8978 4.59831 98.1313 4.23737 98.1313 3.70742C98.1313 3.19753 97.9221 2.84948 97.5039 2.66328C97.2805 2.56302 96.984 2.51289 96.6145 2.51289C96.3652 2.51289 96.212 2.53151 96.1547 2.56875C96.1003 2.60312 96.073 2.6862 96.073 2.81797V4.98789ZM94.423 7.84102C94.7611 7.80951 94.9716 7.74362 95.0547 7.64336C95.1378 7.5431 95.1793 7.30964 95.1793 6.94297V3.13164C95.1793 2.82227 95.132 2.62031 95.0375 2.52578C94.9458 2.42839 94.741 2.3668 94.423 2.34102V2.17773H96.8594C97.3664 2.17773 97.7889 2.24219 98.127 2.37109C98.7686 2.61458 99.0895 3.06289 99.0895 3.71602C99.0895 4.1543 98.9462 4.49089 98.6598 4.72578C98.3762 4.96068 97.9895 5.11536 97.4996 5.18984L99.3129 7.41992C99.4246 7.55742 99.5363 7.65768 99.648 7.7207C99.7598 7.78372 99.903 7.82383 100.078 7.84102V8H98.6598L96.5629 5.29297L96.073 5.31445V7.04609C96.073 7.37266 96.1217 7.58034 96.2191 7.66914C96.3194 7.75508 96.5357 7.81237 96.868 7.84102V8H94.423V7.84102ZM102.811 7.68203C103.26 7.68203 103.637 7.59466 103.941 7.41992C104.244 7.24518 104.396 6.91003 104.396 6.41445C104.396 5.92174 104.218 5.58516 103.863 5.40469C103.508 5.22422 103.055 5.13398 102.505 5.13398C102.371 5.13398 102.285 5.13398 102.248 5.13398C102.213 5.13398 102.159 5.13255 102.084 5.12969V7.32109C102.084 7.47292 102.127 7.57174 102.213 7.61758C102.299 7.66055 102.498 7.68203 102.811 7.68203ZM100.344 7.84102C100.699 7.82096 100.929 7.76654 101.032 7.67773C101.138 7.58607 101.191 7.37552 101.191 7.04609V3.13164C101.191 2.80794 101.138 2.60026 101.032 2.50859C100.929 2.41406 100.699 2.3582 100.344 2.34102V2.17773H102.811C103.515 2.17773 104.074 2.29089 104.486 2.51719C104.902 2.74349 105.109 3.13307 105.109 3.68594C105.109 4.1013 104.965 4.41641 104.675 4.63125C104.512 4.75443 104.267 4.85612 103.941 4.93633C104.345 5.03372 104.69 5.19701 104.976 5.42617C105.263 5.65247 105.406 5.97044 105.406 6.38008C105.406 7.06758 105.088 7.54023 104.452 7.79805C104.117 7.93268 103.704 8 103.214 8H100.344V7.84102ZM102.922 4.78164C103.217 4.77591 103.462 4.72865 103.657 4.63984C104.029 4.46797 104.216 4.16003 104.216 3.71602C104.216 3.1918 104.001 2.83802 103.571 2.65469C103.333 2.55443 102.972 2.5043 102.488 2.5043C102.305 2.5043 102.192 2.52005 102.149 2.55156C102.106 2.58307 102.084 2.66901 102.084 2.80937V4.79453L102.922 4.78164ZM106.63 6.22969C106.779 6.625 106.954 6.9401 107.155 7.175C107.504 7.58464 107.938 7.78945 108.457 7.78945C108.737 7.78945 108.979 7.70065 109.183 7.52305C109.389 7.34544 109.492 7.09766 109.492 6.77969C109.492 6.49323 109.389 6.24401 109.183 6.03203C109.048 5.8974 108.765 5.69544 108.332 5.42617L107.58 4.95781C107.354 4.81458 107.173 4.66992 107.039 4.52383C106.789 4.24596 106.665 3.93945 106.665 3.6043C106.665 3.16029 106.812 2.79076 107.107 2.4957C107.402 2.20065 107.793 2.05312 108.28 2.05312C108.481 2.05312 108.722 2.10326 109.002 2.20352C109.286 2.30091 109.448 2.34961 109.488 2.34961C109.597 2.34961 109.671 2.32383 109.711 2.27227C109.754 2.2207 109.787 2.14766 109.81 2.05312H109.991L110.184 3.92656H109.973C109.83 3.36224 109.6 2.96836 109.282 2.74492C108.967 2.52148 108.654 2.40977 108.345 2.40977C108.104 2.40977 107.894 2.48138 107.713 2.62461C107.536 2.76497 107.447 2.9612 107.447 3.21328C107.447 3.43958 107.516 3.63294 107.653 3.79336C107.791 3.95664 108.004 4.12708 108.293 4.30469L109.067 4.78164C109.551 5.07956 109.892 5.35312 110.089 5.60234C110.284 5.85443 110.382 6.15234 110.382 6.49609C110.382 6.95729 110.207 7.34258 109.857 7.65195C109.511 7.96133 109.067 8.11602 108.525 8.11602C108.253 8.11602 107.968 8.06445 107.67 7.96133C107.375 7.8582 107.206 7.80664 107.163 7.80664C107.06 7.80664 106.99 7.83815 106.953 7.90117C106.918 7.96419 106.895 8.03151 106.884 8.10313H106.691L106.429 6.22969H106.63ZM116.419 2.07461C116.737 2.07461 117.063 2.12187 117.398 2.21641C117.734 2.31094 117.921 2.3582 117.961 2.3582C118.044 2.3582 118.123 2.33529 118.198 2.28945C118.272 2.24362 118.324 2.17201 118.352 2.07461H118.537L118.619 4.05117H118.417C118.299 3.65872 118.146 3.34219 117.957 3.10156C117.596 2.64896 117.111 2.42266 116.5 2.42266C115.884 2.42266 115.38 2.66615 114.988 3.15312C114.598 3.6401 114.404 4.31042 114.404 5.16406C114.404 5.94896 114.608 6.5763 115.018 7.04609C115.43 7.51302 115.952 7.74648 116.582 7.74648C117.037 7.74648 117.457 7.63763 117.841 7.41992C118.062 7.29674 118.304 7.11055 118.567 6.86133L118.73 7.02461C118.536 7.27096 118.294 7.48724 118.004 7.67344C117.512 7.98854 116.977 8.14609 116.402 8.14609C115.456 8.14609 114.706 7.84388 114.15 7.23945C113.637 6.68086 113.381 5.98333 113.381 5.14687C113.381 4.29036 113.652 3.57135 114.193 2.98984C114.763 2.37969 115.505 2.07461 116.419 2.07461ZM119.255 6.00625C119.255 5.4362 119.435 4.95495 119.796 4.5625C120.16 4.16719 120.627 3.96953 121.197 3.96953C121.764 3.96953 122.234 4.15573 122.606 4.52812C122.979 4.90052 123.165 5.39609 123.165 6.01484C123.165 6.5849 122.984 7.08047 122.623 7.50156C122.263 7.92266 121.796 8.1332 121.223 8.1332C120.673 8.1332 120.207 7.93125 119.826 7.52734C119.445 7.12344 119.255 6.61641 119.255 6.00625ZM121.077 4.22734C120.85 4.22734 120.654 4.30182 120.488 4.45078C120.201 4.71146 120.058 5.1612 120.058 5.8C120.058 6.3099 120.173 6.78542 120.402 7.22656C120.634 7.66771 120.955 7.88828 121.364 7.88828C121.685 7.88828 121.932 7.74076 122.104 7.4457C122.278 7.15065 122.366 6.76393 122.366 6.28555C122.366 5.78997 122.255 5.32305 122.035 4.88477C121.814 4.44648 121.495 4.22734 121.077 4.22734ZM124.866 8.10313C124.729 8.10313 124.613 8.05586 124.518 7.96133C124.424 7.86393 124.377 7.74792 124.377 7.61328C124.377 7.47865 124.424 7.36406 124.518 7.26953C124.616 7.175 124.732 7.12773 124.866 7.12773C125.001 7.12773 125.116 7.175 125.21 7.26953C125.305 7.36406 125.352 7.47865 125.352 7.61328C125.352 7.74792 125.305 7.86393 125.21 7.96133C125.118 8.05586 125.004 8.10313 124.866 8.10313Z" fill="#537D5D"/>
</svg>
