<svg width="110" height="30" viewBox="0 0 110 30" fill="none" xmlns="http://www.w3.org/2000/svg">
<path d="M1.30859 3.93555H4.45312C4.99544 3.93555 5.47168 3.99479 5.88184 4.11328C6.29199 4.22721 6.63379 4.389 6.90723 4.59863C7.18066 4.80827 7.38574 5.05892 7.52246 5.35059C7.66374 5.6377 7.73438 5.95215 7.73438 6.29395C7.73438 6.5765 7.67969 6.84082 7.57031 7.08691C7.46549 7.33301 7.3151 7.55632 7.11914 7.75684C6.92773 7.9528 6.69531 8.1237 6.42188 8.26953C6.14844 8.41081 5.84766 8.52246 5.51953 8.60449L8.82129 13H7.05078L3.89941 8.74121H2.83301V13H1.30859V3.93555ZM2.83301 8.2832H3.71484C4.05664 8.2832 4.37109 8.23763 4.6582 8.14648C4.94987 8.05534 5.20052 7.92773 5.41016 7.76367C5.62435 7.59505 5.79069 7.39225 5.90918 7.15527C6.02767 6.91829 6.08691 6.65169 6.08691 6.35547C6.08691 6.08203 6.03906 5.83138 5.94336 5.60352C5.85221 5.37565 5.72005 5.18197 5.54688 5.02246C5.37826 4.8584 5.17546 4.73079 4.93848 4.63965C4.70605 4.5485 4.45085 4.50293 4.17285 4.50293H2.83301V8.2832ZM14.2695 13.2119C13.5677 13.2119 12.9115 13.0866 12.3008 12.8359C11.6947 12.5853 11.166 12.2435 10.7148 11.8105C10.2682 11.373 9.91504 10.8649 9.65527 10.2861C9.40007 9.7028 9.27246 9.08073 9.27246 8.41992C9.27246 7.98698 9.32943 7.56999 9.44336 7.16895C9.56185 6.7679 9.72819 6.39421 9.94238 6.04785C10.1566 5.7015 10.4141 5.38704 10.7148 5.10449C11.0202 4.81738 11.3574 4.57357 11.7266 4.37305C12.0957 4.16797 12.4945 4.01074 12.9229 3.90137C13.3512 3.78743 13.8001 3.73047 14.2695 3.73047C14.7389 3.73047 15.1878 3.78743 15.6162 3.90137C16.0446 4.01074 16.4434 4.16797 16.8125 4.37305C17.1862 4.57357 17.5234 4.81738 17.8242 5.10449C18.125 5.38704 18.3825 5.7015 18.5967 6.04785C18.8154 6.39421 18.9818 6.7679 19.0957 7.16895C19.2142 7.56999 19.2734 7.98698 19.2734 8.41992C19.2734 8.85742 19.2142 9.28125 19.0957 9.69141C18.9818 10.097 18.8154 10.4775 18.5967 10.833C18.3825 11.1885 18.125 11.512 17.8242 11.8037C17.5234 12.0954 17.1862 12.346 16.8125 12.5557C16.4434 12.7653 16.0446 12.9271 15.6162 13.041C15.1878 13.1549 14.7389 13.2119 14.2695 13.2119ZM14.2695 12.7607C14.7891 12.7607 15.2471 12.6536 15.6436 12.4395C16.0446 12.2207 16.3818 11.9176 16.6553 11.5303C16.9287 11.1429 17.1338 10.6849 17.2705 10.1562C17.4118 9.6276 17.4824 9.04883 17.4824 8.41992C17.4824 7.79557 17.4118 7.22363 17.2705 6.7041C17.1338 6.18457 16.9287 5.73796 16.6553 5.36426C16.3818 4.986 16.0446 4.69434 15.6436 4.48926C15.2471 4.27962 14.7891 4.1748 14.2695 4.1748C13.7409 4.1748 13.276 4.27962 12.875 4.48926C12.4785 4.69434 12.1436 4.986 11.8701 5.36426C11.6012 5.73796 11.3984 6.18457 11.2617 6.7041C11.125 7.22363 11.0566 7.79557 11.0566 8.41992C11.0566 9.04883 11.125 9.6276 11.2617 10.1562C11.3984 10.6849 11.6012 11.1429 11.8701 11.5303C12.1436 11.9176 12.4785 12.2207 12.875 12.4395C13.276 12.6536 13.7409 12.7607 14.2695 12.7607ZM21.1465 3.93555L24.291 8.5293L27.4219 3.93555H28.249L24.7354 9.08301V13H23.2109V9.22656L19.5879 3.93555H21.1465ZM31.9814 3.73047L36.2471 13H34.6953L33.3145 9.97852H29.4248L27.9961 13H27.2305L31.5986 3.73047H31.9814ZM29.6914 9.39062H33.0342L31.3867 5.80176L29.6914 9.39062ZM37.5117 3.93555H39.0361V12.4121H43.6025V13H37.5117V3.93555ZM49.3584 8.65234V13H47.834V3.93555H49.3584V8.06445H53.9111V3.93555H55.4355V13H53.9111V8.65234H49.3584ZM61.458 3.73047L65.7236 13H64.1719L62.791 9.97852H58.9014L57.4727 13H56.707L61.0752 3.73047H61.458ZM59.168 9.39062H62.5107L60.8633 5.80176L59.168 9.39062ZM66.9883 3.93555H70.1328C70.6751 3.93555 71.1514 3.99479 71.5615 4.11328C71.9717 4.22721 72.3135 4.389 72.5869 4.59863C72.8604 4.80827 73.0654 5.05892 73.2021 5.35059C73.3434 5.6377 73.4141 5.95215 73.4141 6.29395C73.4141 6.5765 73.3594 6.84082 73.25 7.08691C73.1452 7.33301 72.9948 7.55632 72.7988 7.75684C72.6074 7.9528 72.375 8.1237 72.1016 8.26953C71.8281 8.41081 71.5273 8.52246 71.1992 8.60449L74.501 13H72.7305L69.5791 8.74121H68.5127V13H66.9883V3.93555ZM68.5127 8.2832H69.3945C69.7363 8.2832 70.0508 8.23763 70.3379 8.14648C70.6296 8.05534 70.8802 7.92773 71.0898 7.76367C71.304 7.59505 71.4704 7.39225 71.5889 7.15527C71.7074 6.91829 71.7666 6.65169 71.7666 6.35547C71.7666 6.08203 71.7188 5.83138 71.623 5.60352C71.5319 5.37565 71.3997 5.18197 71.2266 5.02246C71.0579 4.8584 70.8551 4.73079 70.6182 4.63965C70.3857 4.5485 70.1305 4.50293 69.8525 4.50293H68.5127V8.2832ZM75.6221 3.93555L79.0469 11.1475L82.2256 3.93555H82.9502L78.835 13.2119H78.4385L74.0156 3.93555H75.6221ZM90.5176 3.93555V4.52344H85.7393V7.76367H88.9385V8.35156H85.7393V12.4121H90.5176V13H84.2148V3.93555H90.5176ZM95.2754 12.6377C95.4987 12.6377 95.7197 12.6081 95.9385 12.5488C96.1572 12.485 96.3532 12.3939 96.5264 12.2754C96.6995 12.1523 96.8385 12.0042 96.9434 11.8311C97.0482 11.6533 97.1006 11.4482 97.1006 11.2158C97.1006 10.9378 97.0277 10.6917 96.8818 10.4775C96.7406 10.2588 96.5537 10.0605 96.3213 9.88281C96.0889 9.70052 95.8223 9.52962 95.5215 9.37012C95.2253 9.21061 94.9222 9.05111 94.6123 8.8916C94.3024 8.7321 93.9971 8.56576 93.6963 8.39258C93.4001 8.21484 93.1357 8.01888 92.9033 7.80469C92.6709 7.58594 92.4818 7.3444 92.3359 7.08008C92.1947 6.8112 92.124 6.50358 92.124 6.15723C92.124 5.81087 92.1878 5.48958 92.3154 5.19336C92.4476 4.89714 92.639 4.64193 92.8896 4.42773C93.1403 4.20898 93.4479 4.03809 93.8125 3.91504C94.1816 3.79199 94.6032 3.73047 95.0771 3.73047C95.5055 3.73047 95.8883 3.77604 96.2256 3.86719C96.5628 3.95833 96.859 4.09277 97.1143 4.27051C97.3695 4.44824 97.5859 4.66699 97.7637 4.92676C97.9414 5.18652 98.085 5.4873 98.1943 5.8291L97.415 6.18457C97.3239 5.90658 97.2077 5.65365 97.0664 5.42578C96.9251 5.19336 96.7565 4.99512 96.5605 4.83105C96.3646 4.66699 96.1367 4.54167 95.877 4.45508C95.6217 4.36393 95.3324 4.31836 95.0088 4.31836C94.7217 4.31836 94.471 4.35938 94.2568 4.44141C94.0426 4.51888 93.8626 4.6237 93.7168 4.75586C93.5755 4.88346 93.4684 5.0293 93.3955 5.19336C93.3271 5.35286 93.293 5.51693 93.293 5.68555C93.293 5.92253 93.3659 6.14128 93.5117 6.3418C93.6576 6.53776 93.8512 6.72461 94.0928 6.90234C94.3343 7.07552 94.6077 7.24414 94.9131 7.4082C95.223 7.57227 95.5374 7.73861 95.8564 7.90723C96.1755 8.07585 96.4876 8.2513 96.793 8.43359C97.1029 8.61589 97.3786 8.81641 97.6201 9.03516C97.8617 9.24935 98.0553 9.48633 98.2012 9.74609C98.347 10.0013 98.4199 10.2884 98.4199 10.6074C98.4199 10.9674 98.3516 11.307 98.2148 11.626C98.0781 11.9404 97.873 12.2161 97.5996 12.4531C97.3262 12.6855 96.9867 12.8701 96.5811 13.0068C96.1755 13.1436 95.7038 13.2119 95.166 13.2119C94.7285 13.2119 94.3389 13.1641 93.9971 13.0684C93.6553 12.9727 93.3522 12.8337 93.0879 12.6514C92.8281 12.4691 92.6048 12.248 92.418 11.9883C92.2311 11.724 92.0785 11.4232 91.96 11.0859L92.7734 10.751C92.8691 11.0472 92.9967 11.3115 93.1562 11.5439C93.3203 11.7764 93.5094 11.9746 93.7236 12.1387C93.9378 12.2982 94.1748 12.4212 94.4346 12.5078C94.6989 12.5944 94.9792 12.6377 95.2754 12.6377ZM107.662 3.93555V4.52344H104.381V13H102.856V4.52344H99.5752V3.93555H107.662Z" fill="#537D5D"/>
<path d="M53.5518 21.7871C53.389 21.8815 53.2376 21.9857 53.0977 22.0996C52.9609 22.2135 52.8421 22.3356 52.7412 22.4658C52.6403 22.5928 52.5605 22.7279 52.502 22.8711C52.4466 23.0143 52.4189 23.1641 52.4189 23.3203C52.4189 23.4961 52.4466 23.6605 52.502 23.8135C52.5605 23.9665 52.6419 24.0999 52.7461 24.2139C52.8503 24.3245 52.9772 24.4124 53.127 24.4775C53.2799 24.5426 53.4508 24.5752 53.6396 24.5752C53.8968 24.5752 54.141 24.5182 54.3721 24.4043C54.6064 24.2904 54.8294 24.1504 55.041 23.9844C54.8945 23.8249 54.7529 23.6556 54.6162 23.4766C54.4827 23.2975 54.3542 23.1152 54.2305 22.9297C54.1068 22.7409 53.988 22.5505 53.874 22.3584C53.7633 22.1631 53.6559 21.9727 53.5518 21.7871ZM54.2549 21.0693C54.4242 20.9814 54.582 20.8903 54.7285 20.7959C54.875 20.7015 55.002 20.6006 55.1094 20.4932C55.2201 20.3825 55.3063 20.262 55.3682 20.1318C55.43 19.9984 55.4609 19.8519 55.4609 19.6924C55.4609 19.5361 55.4398 19.3978 55.3975 19.2773C55.3584 19.1536 55.3031 19.0495 55.2314 18.9648C55.1631 18.877 55.0817 18.8102 54.9873 18.7646C54.8962 18.7191 54.7969 18.6963 54.6895 18.6963C54.569 18.6963 54.4583 18.7272 54.3574 18.7891C54.2565 18.8509 54.1686 18.9323 54.0938 19.0332C54.0221 19.1309 53.9652 19.2415 53.9229 19.3652C53.8805 19.4857 53.8594 19.6061 53.8594 19.7266C53.8594 19.9219 53.8936 20.1367 53.9619 20.3711C54.0335 20.6055 54.1312 20.8382 54.2549 21.0693ZM57.0918 21.5088C57.0527 21.7399 57.0039 21.9466 56.9453 22.1289C56.89 22.3112 56.8216 22.4837 56.7402 22.6465C56.6621 22.806 56.5693 22.9622 56.4619 23.1152C56.3577 23.2682 56.2389 23.4294 56.1055 23.5986C56.3561 23.8525 56.5921 24.0544 56.8135 24.2041C57.0381 24.3506 57.2448 24.4238 57.4336 24.4238C57.6777 24.4238 57.8861 24.3766 58.0586 24.2822C58.2311 24.1846 58.3695 24.0137 58.4736 23.7695L58.6592 23.8379C58.6169 24.0495 58.5469 24.2367 58.4492 24.3994C58.3548 24.5622 58.2376 24.7005 58.0977 24.8145C57.9577 24.9251 57.7982 25.0081 57.6191 25.0635C57.4401 25.1221 57.2464 25.1514 57.0381 25.1514C56.7712 25.1514 56.4961 25.0765 56.2129 24.9268C55.9329 24.7738 55.6579 24.5703 55.3877 24.3164C55.0687 24.5638 54.7204 24.7656 54.3428 24.9219C53.9684 25.0749 53.5632 25.1514 53.127 25.1514C52.821 25.1514 52.5605 25.1172 52.3457 25.0488C52.1309 24.9805 51.9551 24.8844 51.8184 24.7607C51.6816 24.637 51.5807 24.4889 51.5156 24.3164C51.4538 24.1439 51.4229 23.9535 51.4229 23.7451C51.4229 23.4489 51.4782 23.1868 51.5889 22.959C51.7028 22.7279 51.8509 22.5212 52.0332 22.3389C52.2188 22.1566 52.4287 21.9954 52.6631 21.8555C52.8975 21.7122 53.1383 21.5804 53.3857 21.46C53.249 21.1735 53.14 20.9098 53.0586 20.6689C52.9805 20.4281 52.9414 20.2246 52.9414 20.0586C52.9414 19.8438 52.9756 19.6354 53.0439 19.4336C53.1156 19.2318 53.2214 19.0527 53.3613 18.8965C53.5046 18.7402 53.682 18.6149 53.8936 18.5205C54.1051 18.4261 54.3509 18.3789 54.6309 18.3789C54.8392 18.3789 55.0345 18.4098 55.2168 18.4717C55.4023 18.5303 55.5635 18.6182 55.7002 18.7354C55.8369 18.8493 55.9443 18.9909 56.0225 19.1602C56.1038 19.3262 56.1445 19.515 56.1445 19.7266C56.1445 19.9382 56.0941 20.1237 55.9932 20.2832C55.8923 20.4427 55.7604 20.5859 55.5977 20.7129C55.4349 20.8398 55.2493 20.9554 55.041 21.0596C54.8359 21.1637 54.6276 21.2663 54.416 21.3672C54.5853 21.6895 54.7887 22.0101 55.0264 22.3291C55.2673 22.6449 55.526 22.9557 55.8027 23.2617C56.125 22.8971 56.3659 22.5602 56.5254 22.251C56.6882 21.9417 56.7956 21.6715 56.8477 21.4404L57.0918 21.5088ZM62.7168 21.8945V25H61.6279V18.5254H62.7168V21.4746H65.9688V18.5254H67.0576V25H65.9688V21.8945H62.7168ZM73.3271 18.5254V18.9453H69.9141V21.2598H72.1992V21.6797H69.9141V24.5801H73.3271V25H68.8252V18.5254H73.3271ZM74.6064 18.5254H76.8525C77.2399 18.5254 77.5801 18.5677 77.873 18.6523C78.166 18.7337 78.4102 18.8493 78.6055 18.999C78.8008 19.1488 78.9473 19.3278 79.0449 19.5361C79.1458 19.7412 79.1963 19.9658 79.1963 20.21C79.1963 20.4118 79.1572 20.6006 79.0791 20.7764C79.0042 20.9521 78.8968 21.1117 78.7568 21.2549C78.6201 21.3949 78.4541 21.5169 78.2588 21.6211C78.0635 21.722 77.8486 21.8018 77.6143 21.8604L79.9727 25H78.708L76.457 21.958H75.6953V25H74.6064V18.5254ZM75.6953 21.6309H76.3252C76.5693 21.6309 76.7939 21.5983 76.999 21.5332C77.2074 21.4681 77.3864 21.377 77.5361 21.2598C77.6891 21.1393 77.8079 20.9945 77.8926 20.8252C77.9772 20.6559 78.0195 20.4655 78.0195 20.2539C78.0195 20.0586 77.9854 19.8796 77.917 19.7168C77.8519 19.554 77.7575 19.4157 77.6338 19.3018C77.5133 19.1846 77.3685 19.0934 77.1992 19.0283C77.0332 18.9632 76.8509 18.9307 76.6523 18.9307H75.6953V21.6309ZM80.8564 18.5254H83.4639C83.8089 18.5254 84.1247 18.5645 84.4111 18.6426C84.7008 18.7174 84.9482 18.8249 85.1533 18.9648C85.3617 19.1048 85.5228 19.2725 85.6367 19.4678C85.7507 19.6631 85.8076 19.8779 85.8076 20.1123C85.8076 20.2913 85.7897 20.4508 85.7539 20.5908C85.7181 20.7308 85.6546 20.861 85.5635 20.9814C85.4723 21.0986 85.3503 21.2109 85.1973 21.3184C85.0475 21.4225 84.8571 21.5299 84.626 21.6406V21.6602C84.8571 21.696 85.0654 21.7578 85.251 21.8457C85.4365 21.9336 85.5944 22.0459 85.7246 22.1826C85.8581 22.3161 85.9606 22.474 86.0322 22.6562C86.1038 22.8353 86.1396 23.0322 86.1396 23.2471C86.1396 23.4912 86.0859 23.7207 85.9785 23.9355C85.8743 24.1471 85.723 24.3327 85.5244 24.4922C85.3291 24.6484 85.0915 24.7721 84.8115 24.8633C84.5348 24.9544 84.224 25 83.8789 25H80.8564V18.5254ZM81.9453 21.4404H83.332C83.5501 21.4404 83.7438 21.4095 83.9131 21.3477C84.0824 21.2858 84.2256 21.2012 84.3428 21.0938C84.46 20.9831 84.5479 20.8529 84.6064 20.7031C84.6683 20.5501 84.6992 20.3857 84.6992 20.21C84.6992 20.0212 84.6634 19.8503 84.5918 19.6973C84.5202 19.541 84.4079 19.4076 84.2549 19.2969C84.1051 19.1862 83.9131 19.1016 83.6787 19.043C83.4476 18.9844 83.1693 18.9551 82.8438 18.9551H81.9453V21.4404ZM81.9453 24.5264H83.1221C83.4378 24.5264 83.7113 24.4971 83.9424 24.4385C84.1768 24.3766 84.3688 24.292 84.5186 24.1846C84.6715 24.0739 84.7839 23.9421 84.8555 23.7891C84.9303 23.6361 84.9678 23.4684 84.9678 23.2861C84.9678 23.0811 84.9352 22.8906 84.8701 22.7148C84.805 22.5391 84.6976 22.3877 84.5479 22.2607C84.4014 22.1305 84.2077 22.028 83.9668 21.9531C83.7292 21.8783 83.4362 21.8408 83.0879 21.8408H81.9453V24.5264ZM89.5869 24.7412C89.7464 24.7412 89.9043 24.7201 90.0605 24.6777C90.2168 24.6322 90.3568 24.5671 90.4805 24.4824C90.6042 24.3945 90.7035 24.2887 90.7783 24.165C90.8532 24.0381 90.8906 23.8916 90.8906 23.7256C90.8906 23.527 90.8385 23.3512 90.7344 23.1982C90.6335 23.042 90.5 22.9004 90.334 22.7734C90.168 22.6432 89.9775 22.5212 89.7627 22.4072C89.5511 22.2933 89.3346 22.1794 89.1133 22.0654C88.8919 21.9515 88.6738 21.8327 88.459 21.709C88.2474 21.582 88.0586 21.4421 87.8926 21.2891C87.7266 21.1328 87.5915 20.9603 87.4873 20.7715C87.3864 20.5794 87.3359 20.3597 87.3359 20.1123C87.3359 19.8649 87.3815 19.6354 87.4727 19.4238C87.5671 19.2122 87.7038 19.0299 87.8828 18.877C88.0618 18.7207 88.2816 18.5986 88.542 18.5107C88.8057 18.4229 89.1068 18.3789 89.4453 18.3789C89.7513 18.3789 90.0247 18.4115 90.2656 18.4766C90.5065 18.5417 90.7181 18.6377 90.9004 18.7646C91.0827 18.8916 91.2373 19.0479 91.3643 19.2334C91.4912 19.4189 91.5938 19.6338 91.6719 19.8779L91.1152 20.1318C91.0501 19.9333 90.9671 19.7526 90.8662 19.5898C90.7653 19.4238 90.6449 19.2822 90.5049 19.165C90.3649 19.0479 90.2021 18.9583 90.0166 18.8965C89.8343 18.8314 89.6276 18.7988 89.3965 18.7988C89.1914 18.7988 89.0124 18.8281 88.8594 18.8867C88.7064 18.9421 88.5778 19.0169 88.4736 19.1113C88.3727 19.2025 88.2962 19.3066 88.2441 19.4238C88.1953 19.5378 88.1709 19.6549 88.1709 19.7754C88.1709 19.9447 88.223 20.1009 88.3271 20.2441C88.4313 20.3841 88.5697 20.5176 88.7422 20.6445C88.9147 20.7682 89.11 20.8887 89.3281 21.0059C89.5495 21.123 89.7741 21.2419 90.002 21.3623C90.2298 21.4827 90.4528 21.6081 90.6709 21.7383C90.8923 21.8685 91.0892 22.0117 91.2617 22.168C91.4342 22.321 91.5726 22.4902 91.6768 22.6758C91.7809 22.8581 91.833 23.0632 91.833 23.291C91.833 23.5482 91.7842 23.7907 91.6865 24.0186C91.5889 24.2432 91.4424 24.4401 91.2471 24.6094C91.0518 24.7754 90.8092 24.9072 90.5195 25.0049C90.2298 25.1025 89.8929 25.1514 89.5088 25.1514C89.1963 25.1514 88.918 25.1172 88.6738 25.0488C88.4297 24.9805 88.2132 24.8812 88.0244 24.751C87.8389 24.6208 87.6794 24.4629 87.5459 24.2773C87.4124 24.0885 87.3034 23.8737 87.2188 23.6328L87.7998 23.3936C87.8682 23.6051 87.9593 23.7939 88.0732 23.96C88.1904 24.126 88.3255 24.2676 88.4785 24.3848C88.6315 24.4987 88.8008 24.5866 88.9863 24.6484C89.1751 24.7103 89.3753 24.7412 89.5869 24.7412ZM96.4229 21.7871C96.4229 22.2396 96.4912 22.6465 96.6279 23.0078C96.7646 23.3659 96.9518 23.6702 97.1895 23.9209C97.4303 24.1683 97.7135 24.3587 98.0391 24.4922C98.3646 24.6224 98.7178 24.6875 99.0986 24.6875C99.3265 24.6875 99.5462 24.6436 99.7578 24.5557C99.9694 24.4678 100.165 24.3538 100.344 24.2139C100.526 24.0706 100.689 23.9111 100.832 23.7354C100.975 23.5563 101.092 23.3757 101.184 23.1934L101.643 23.4863C101.509 23.7044 101.351 23.9144 101.169 24.1162C100.987 24.3148 100.775 24.4922 100.534 24.6484C100.297 24.8014 100.026 24.9235 99.7236 25.0146C99.4242 25.1058 99.0889 25.1514 98.7178 25.1514C98.1807 25.1514 97.6924 25.0618 97.2529 24.8828C96.8167 24.7038 96.4424 24.4613 96.1299 24.1553C95.8174 23.8493 95.5749 23.4928 95.4023 23.0859C95.2331 22.6758 95.1484 22.2428 95.1484 21.7871C95.1484 21.4844 95.1875 21.1898 95.2656 20.9033C95.3438 20.6136 95.4561 20.3434 95.6025 20.0928C95.7523 19.8389 95.9329 19.6077 96.1445 19.3994C96.3594 19.1878 96.6003 19.0072 96.8672 18.8574C97.1374 18.7044 97.432 18.5872 97.751 18.5059C98.07 18.4212 98.4102 18.3789 98.7715 18.3789C99.1165 18.3789 99.4339 18.4261 99.7236 18.5205C100.017 18.6117 100.282 18.7337 100.52 18.8867C100.76 19.0397 100.974 19.2171 101.159 19.4189C101.348 19.6175 101.509 19.8258 101.643 20.0439L101.169 20.3564C100.899 19.8324 100.596 19.4499 100.261 19.209C99.9255 18.9648 99.5397 18.8428 99.1035 18.8428C98.7292 18.8428 98.3792 18.9111 98.0537 19.0479C97.7282 19.1846 97.4434 19.3799 97.1992 19.6338C96.9583 19.8877 96.7679 20.1969 96.6279 20.5615C96.4912 20.9229 96.4229 21.3314 96.4229 21.7871ZM105.466 25.1074C105.082 25.1074 104.729 25.0407 104.406 24.9072C104.084 24.7738 103.806 24.5931 103.571 24.3652C103.337 24.1341 103.153 23.8656 103.02 23.5596C102.889 23.2503 102.824 22.9199 102.824 22.5684C102.824 22.2005 102.889 21.8555 103.02 21.5332C103.153 21.2077 103.337 20.9245 103.571 20.6836C103.806 20.4427 104.084 20.2539 104.406 20.1172C104.729 19.9772 105.082 19.9072 105.466 19.9072C105.847 19.9072 106.197 19.9707 106.516 20.0977C106.838 20.2246 107.116 20.3988 107.351 20.6201C107.585 20.8415 107.767 21.1019 107.897 21.4014C108.031 21.6976 108.098 22.0166 108.098 22.3584C108.098 22.736 108.031 23.0924 107.897 23.4277C107.767 23.7598 107.585 24.0511 107.351 24.3018C107.116 24.5492 106.838 24.7461 106.516 24.8926C106.197 25.0358 105.847 25.1074 105.466 25.1074ZM105.656 24.7412C105.852 24.7412 106.031 24.6908 106.193 24.5898C106.356 24.4889 106.496 24.3538 106.613 24.1846C106.73 24.012 106.822 23.8135 106.887 23.5889C106.952 23.3643 106.984 23.1266 106.984 22.876C106.984 22.5146 106.953 22.1761 106.892 21.8604C106.83 21.5446 106.729 21.2695 106.589 21.0352C106.449 20.8008 106.267 20.6169 106.042 20.4834C105.817 20.3467 105.544 20.2783 105.222 20.2783C105.056 20.2783 104.895 20.3271 104.738 20.4248C104.582 20.5192 104.444 20.6494 104.323 20.8154C104.206 20.9814 104.112 21.1768 104.04 21.4014C103.968 21.6227 103.933 21.8587 103.933 22.1094C103.933 22.474 103.97 22.8158 104.045 23.1348C104.123 23.4538 104.235 23.7321 104.382 23.9697C104.532 24.2074 104.712 24.3962 104.924 24.5361C105.139 24.6729 105.383 24.7412 105.656 24.7412ZM108.869 24.1211C108.941 24.1211 109.009 24.1357 109.074 24.165C109.139 24.1911 109.196 24.2269 109.245 24.2725C109.294 24.318 109.331 24.3734 109.357 24.4385C109.387 24.5003 109.401 24.5654 109.401 24.6338C109.401 24.7087 109.387 24.777 109.357 24.8389C109.331 24.9007 109.294 24.9544 109.245 25C109.196 25.0488 109.139 25.0863 109.074 25.1123C109.009 25.1383 108.941 25.1514 108.869 25.1514C108.794 25.1514 108.724 25.1383 108.659 25.1123C108.594 25.0863 108.537 25.0488 108.488 25C108.439 24.9544 108.4 24.9007 108.371 24.8389C108.345 24.777 108.332 24.7087 108.332 24.6338C108.332 24.5654 108.345 24.5003 108.371 24.4385C108.4 24.3734 108.439 24.318 108.488 24.2725C108.537 24.2269 108.594 24.1911 108.659 24.165C108.724 24.1357 108.794 24.1211 108.869 24.1211Z" fill="#537D5D"/>
</svg>
